<svg width="1920" height="1200" viewBox="0 0 1920 1200" xmlns="http://www.w3.org/2000/svg" style="background:#F3F6F8"><title>featured-image copy</title><desc>Created with Sketch.</desc><path d="M1912.664 191.783c7.365 13.837 2.409 30.034-11.41 37.384-13.827 7.362-30.024 2.407-37.375-11.413-7.353-13.829-2.407-30.024 11.413-37.375 13.835-7.333 30.027-2.397 37.38 11.432l-.008-.029zm19.044-62.283l47.593 89.458c4.749 8.946 1.313 20.15-7.626 24.928l-130.115 69.2c-8.954 4.761-20.164 1.337-24.923-7.607l-47.588-89.439c-4.757-8.975-1.32-20.179 7.626-24.928l-4.325-8.139 32.53-17.316 4.325 8.139 16.258-8.646-.519-20.59 48.8-25.955 16.787 11.942 16.255-8.655c8.954-4.761 20.164-1.337 24.923 7.607zm-109.265 78.997c-3.463-6.506-12.194-9.177-18.69-5.716-6.496 3.461-9.177 12.194-5.716 18.69 3.461 6.496 12.188 9.157 18.685 5.697 6.496-3.461 9.157-12.188 5.716-18.69l.005.019zm106.483-25.34c-12.114-22.783-39.519-31.153-62.283-19.044-22.764 12.109-31.134 39.514-19.022 62.288 12.109 22.764 39.514 31.134 62.288 19.022 22.773-12.111 31.153-39.519 19.042-62.293l-.024.027zm-678.598-260.377l44.201 79.703c-2.976.487-5.906 1.376-8.679 2.928-13.069 7.252-17.823 23.624-10.625 36.604 7.183 12.964 23.603 17.59 36.658 10.363 13.075-7.233 17.823-23.624 10.625-36.604l-43.385-78.244 55.162-30.611 18.171 32.746c-2.956.482-5.891 1.393-8.664 2.944-13.075 7.233-17.823 23.624-10.643 36.578 7.207 12.978 23.608 17.61 36.668 10.36 13.075-7.233 17.823-23.624 10.631-36.585l-43.4-78.261-86.718 48.08zm531.134 25.502l-41.373 28.975c-4.57 3.193-5.372 9.931-1.814 15.014l51.664 73.746 16.024-38.714 41.873-1.856-51.664-73.746c-3.536-5.078-10.156-6.596-14.706-3.409l-.003-.01zm-146.594 134.254l-70.089 8.613-2.19-17.823 70.069-8.608 2.209 17.818zm2.187 17.813l-70.086 8.623 2.19 17.823 70.089-8.613-2.187-17.813-.005-.019zm27.974-56.86l12.905 104.785-46.138 58.862-70.072 8.599c-9.693 1.191-18.497-5.654-19.678-15.309l-17.183-139.703c-1.178-9.645 5.699-18.406 15.378-19.613l105.132-12.925c9.674-1.186 18.48 5.669 19.668 15.311l-.012-.007zm-5.788 90.02l-10.755-87.614-105.757 12.989 17.249 140.182 52.859-6.489-4.302-35.046c-1.198-9.681 5.707-18.491 15.454-19.675l35.241-4.344.01-.003zm-312.649 370.716l-26.077 12.728-9.541-19.559c-1.601-3.267-6.447-4.929-9.698-3.343l-52.166 25.449c-3.267 1.601-4.932 6.437-3.343 9.698l9.541 19.559-26.062 12.745c-3.92 1.91-5.261 5.79-3.353 9.7l15.905 32.597 130.389-63.62-15.886-32.603c-1.917-3.907-5.797-5.248-9.698-3.343l-.012-.007zm-39.118 19.082l-39.127 19.085-6.352-13.031 39.127-19.085 6.364 13.038-.012-.007zm22.108 61.873l-26.079 12.718-6.376-13.045-52.156 25.446 25.449 52.166c1.905 3.9 5.785 5.241 9.695 3.334l117.368-57.271c3.922-1.901 5.263-5.781 3.353-9.7l-25.456-52.154-52.163 25.459 6.379 13.055-.012-.007zm-364.47-373.271l-119.428 43.483c-9.432 3.44-14.301 13.857-10.844 23.275l43.473 119.431c3.43 9.435 13.843 14.285 23.265 10.847l119.428-43.483c9.435-3.43 14.285-13.843 10.844-23.275l-43.483-119.428c-3.44-9.432-13.852-14.282-23.284-10.842l.029-.008zm-102.839 65.387l43.867-15.965 15.985 43.862-43.862 15.985-15.985-43.862-.005-.019zm82.067 97.466c-12.104 4.405-25.514-1.857-29.916-13.951-4.407-12.113 1.835-25.519 13.946-29.936 12.119-4.388 25.524 1.854 29.938 13.955 4.388 12.119-1.854 25.524-13.955 29.938l-.012-.007zm6.724-58.338l10.067-53.363 42.025 34.395-52.104 18.961.012.007zm680.906-621.693l76.64 27.869-53.018 145.737c-10.521-3.827-15.962-15.394-12.23-25.92l-.046-.019c-3.932 10.435-15.537 15.814-26.039 11.983-10.382-3.771-15.763-15.074-12.349-25.474l-.122-.071c-4.077 10.205-15.486 15.387-25.848 11.611l53.004-145.712.01-.003zm77.275-41.324l-33.277-12.118c-11.966-4.35-25.209 1.83-29.572 13.789l-8.859 24.306 76.645 27.888 8.845-24.323c4.353-11.956-1.825-25.19-13.781-29.543l-.005-.019.005.019zm-123.289 215.501l14.623 31.367 31.387-14.628c-8.094-17.327-28.689-24.821-46.007-16.73l-.003-.01zm522.122 139.611c-.745-8.456 5.523-15.936 13.982-16.671 8.466-.748 15.935 5.523 16.693 13.986.719 8.474-5.532 15.938-13.996 16.696-8.464.716-15.931-5.545-16.676-14.001l-.003-.01zm88.869-43.842l10.766 122.682c.99 11.3-7.349 21.25-18.659 22.243l-163.589 14.33c-11.291.987-21.231-7.354-22.233-18.662l-10.737-122.689c-.997-11.288 7.354-21.231 18.652-22.231l163.584-14.349c11.291-.987 21.231 7.354 22.231 18.652l-.014.024zm-20.435 1.793l-163.584 14.349 6.673 76.097 36.911-49.016 66.137 61.686 14.572-20.339c7.327-10.248 22.067-11.539 31.055-2.735l16.682 16.34-8.444-96.372-.003-.01zm-1094.695 478.86l3.485 19.95-20.068 3.548-3.541-19.966-120.465 21.271 3.522 19.972-20.09 3.543-3.512-19.974c-11.092 1.959-18.505 12.468-16.564 23.493l21.129 119.779c1.951 11.022 12.515 18.368 23.61 16.419l-3.517-19.952 20.068-3.548 3.526 19.95 120.519-21.265-3.541-19.966 20.09-3.543 3.532 19.969c11.09-1.969 18.502-12.478 16.559-23.512l-21.13-119.747c-1.951-11.022-12.515-18.368-23.607-16.409l-.003-.01zm-116.46 146.159l-21.406 3.772-5.516-31.272 21.391-3.789 5.519 31.282.012.007zm-8.716-49.384l-21.406 3.772-5.516-31.272 21.406-3.772 5.516 31.272zm42.6 29.82l-10.453-59.262 51.323 21.496-40.867 37.775-.003-.01zm104.391-4.836l-21.396 3.769-5.526-31.269 21.406-3.772 5.523 31.26-.007.012zm-8.718-49.393l-21.387 3.767-5.516-31.272 21.396-3.769 5.516 31.272-.01.003zm1133.914-344.827c-2.801-1.711-5.775-3.121-8.873-4.206l-2.61-14.252-23.477-.477-3.027 14.2c-6.183 1.886-11.974 5.043-16.944 9.409l-13.538-4.923-12.023 20.308 10.637 9.781c-1.432 6.441-1.513 13.108-.238 19.582l-10.952 9.356 11.445 20.788 13.638-4.361c2.387 2.256 5.006 4.254 7.811 5.961 2.807 1.706 5.787 3.111 8.89 4.192l2.597 14.245 23.477.477 3.029-14.19c6.169-1.902 11.962-5.05 16.944-9.409l13.533 4.904 12.013-20.306-10.627-9.783c1.467-6.502 1.494-13.157.238-19.582l10.947-9.376-11.452-20.776-13.638 4.361c-2.397-2.259-5.023-4.262-7.836-5.976l.035.053zm-2.96 52.876c-7.097 11.491-22.283 15.293-33.936 8.478-11.658-6.794-15.343-21.617-8.252-33.096 7.107-11.494 22.302-15.298 33.946-8.48 11.658 6.794 15.34 21.607 8.252 33.096l-.01.003zm-70.494 34.329c-2.192-.444-4.426-.643-6.662-.595l-5.232-8.931-14.971 5.567 1.652 10.295c-3.515 2.889-6.372 6.497-8.377 10.581l-9.797.069-2.522 16.663 9.188 3.915c.708 4.683 2.329 9.18 4.771 13.238l-4.575 9.044 12.464 11.113 7.537-6.339c2.07.915 4.233 1.603 6.452 2.05 2.191.448 4.419.648 6.662.595l5.237 8.95 14.971-5.567-1.652-10.295c3.504-2.889 6.35-6.494 8.348-10.574l9.797-.069 2.522-16.663-9.191-3.924c-.709-4.728-2.364-9.203-4.756-13.221l4.575-9.044-12.462-11.103-7.537 6.339c-2.071-.913-4.234-1.6-6.452-2.05l.009-.044zm11.188 36.554c-1.452 9.336-9.885 15.459-18.85 13.69-8.965-1.769-15.045-10.773-13.592-20.109 1.45-9.345 9.893-15.471 18.848-13.699 8.965 1.769 15.045 10.773 13.592 20.109l.003.01zm-61.036-66.605c-1.061-.087-2.128-.051-3.181.107l-2.975-4.069-6.724 3.615 1.374 4.933c-1.492 1.637-2.621 3.57-3.315 5.672l-4.599.612-.223 8.281 4.55 1.369c.601 2.241 1.626 4.327 3.007 6.193l-1.614 4.678 6.532 4.668 3.171-3.542c1.03.325 2.093.533 3.169.621 1.062.098 2.136.049 3.164-.093l2.977 4.037 6.729-3.596-1.394-4.928c1.496-1.636 2.629-3.57 3.324-5.675l4.618-.617.201-8.286-4.55-1.369c-.604-2.234-1.63-4.331-3.023-6.179l1.624-4.681-6.518-4.693-3.191 3.548c-1.023-.317-2.077-.521-3.145-.606l.01-.003zm7.581 17.154c-.153 4.68-3.856 8.21-8.272 7.882-4.433-.313-7.878-4.359-7.725-9.039.153-4.68 3.856-8.21 8.282-7.884 4.404.321 7.862 4.374 7.706 9.044l.01-.003zm-310.223-478.893l57.483 117.849c7.067 14.465 24.505 20.455 38.976 13.407l117.849-57.483 31.946 65.469 45.427-83.832c8.96-16.549 9.381-36.404 1.133-53.318l-57.114-117.089c-7.058-14.468-24.486-20.46-38.966-13.409l-183.318 89.429c-14.465 7.067-20.474 24.51-13.407 38.976l-.01.003zm-289.635 99.4c-11.913.637-20.989 12.358-20.264 26.183l2.629 50.084c.444 8.299 6.587 14.718 13.732 14.335 7.15-.364 12.553-7.404 12.121-15.696l-2.655-50.066-8.581.437 2.638 50.081c.139 2.758-1.675 5.108-4.055 5.229-2.38.12-4.425-2.023-4.564-4.782l-2.636-50.071c-.432-8.292 5.004-15.32 12.155-15.684 7.145-.383 13.297 6.033 13.732 14.335l2.668 50.694c.727 13.835-8.374 24.921-20.279 25.546-11.925.629-22.168-10.075-22.905-23.907l-1.327-25.033-8.619.447 1.33 25.043c1.008 19.362 15.348 34.341 32.033 33.471 16.683-.88 29.328-17.286 28.322-36.638l-2.658-50.076c-.705-13.831-10.926-24.531-22.832-23.906l.014-.025zm-601.052 64.576c53.332-7.507 102.868 29.804 110.368 83.148 7.509 53.341-29.801 102.878-83.164 110.383-53.332 7.507-102.861-29.816-110.373-83.167-7.507-53.332 29.816-102.861 83.169-110.363zm-2.741-23.971c-66.984 9.417-113.64 71.369-104.215 138.341 9.427 66.982 71.366 113.63 138.338 104.206 66.984-9.417 113.64-71.369 104.215-138.341-9.427-66.982-71.366-113.63-138.338-104.206zm76.296 100.504l-48.762 6.861-6.861-48.762-24.386 3.432 6.859 48.753-48.762 6.861 3.432 24.386 48.753-6.859 6.861 48.762 24.376-3.429-6.861-48.762 48.753-6.859-3.432-24.386.032.002zm124.004 204.718l32.041 18.476c-2.446 4.255-6.489 7.359-11.231 8.623-9.853 2.642-20.016-3.207-22.662-13.079-1.321-4.927-.508-9.928 1.86-14.032l-.007.012zm90.88 27.302l-4.567 7.913-126.582-73.064 4.57-7.904 10.098-1.227c6.924-.821 14.64-5.064 17.147-9.423l25.099-43.487c15.13-26.215 48.65-35.202 74.865-20.073 26.215 15.13 35.202 48.65 20.067 74.846l-25.11 43.522c-2.51 4.349-2.324 13.152.419 19.561l3.984 9.338.01-.003zm149.665 72.187c15.849-.284 28.47-14.384 28.17-31.492l-1.351-77.451c-.31-17.105-13.424-30.757-29.26-30.466-15.874.27-28.475 14.365-28.175 31.473l1.364 77.458c.31 17.105 13.402 30.752 29.26 30.466l-.007.012zm56.882-31.766c.615 34.232-24.583 62.401-56.323 62.969-31.742.558-57.921-26.717-58.516-60.954l-28.717.524c.818 46.034 32.564 83.61 73.391 90.287l.851 47.858 28.715-.492-.881-47.891c40.59-8.108 70.996-46.785 70.173-92.797l-28.703.499.01-.003zm66.093 37.81l32.199 79.659c2.537 6.257 9.702 9.306 15.928 6.809l79.199-32.024c6.226-2.498 9.248-9.686 6.721-15.946l-32.199-79.659-101.829 41.156-.019.005zm64.14 47.674l-27.764 11.223-2.482-6.168 27.742-11.228 2.511 6.161-.007.012zm7.985-15.788l-40.125 16.215-2.502-6.163 40.122-16.225 2.482 6.168.022.004zm-4.989-12.351l-40.122 16.225-2.482-6.168 40.103-16.219 2.482 6.168.019-.005zm47.307 6.016l-27.774 11.226-11.229-27.783 27.764-11.223 11.229 27.783.01-.003zm-16.222-40.113l-78.688 31.804-4.366-10.799 78.688-31.804 4.366 10.799zm-428.966-561.38l-26.099 12.723-9.544-19.569c-1.598-3.258-6.437-4.932-9.695-3.334l-52.166 25.449c-3.258 1.598-4.929 6.447-3.334 9.695l9.544 19.569-26.067 12.725c-3.92 1.91-5.258 5.8-3.353 9.7l15.905 32.597 130.392-63.611-15.886-32.603c-1.92-3.917-5.797-5.248-9.698-3.343zm-39.127 19.085l-39.127 19.085-6.352-13.031 39.127-19.085 6.364 13.038-.012-.007zm22.106 61.864l-26.077 12.728-6.374-13.036-52.156 25.446 25.449 52.166c1.908 3.91 5.785 5.241 9.698 3.343l117.373-57.252c3.917-1.92 5.248-5.797 3.353-9.7l-25.469-52.202-52.158 25.478 6.361 13.029zm710.516 631.795l76.645 27.888-53.013 145.715c-10.516-3.807-15.957-15.374-12.23-25.92l-.044-.009c-3.932 10.435-15.537 15.814-26.039 11.983-10.382-3.771-15.763-15.074-12.349-25.474l-.117-.051c-4.087 10.166-15.494 15.358-25.854 11.591l52.999-145.732.003.01zm77.284-41.326l-33.272-12.099c-11.966-4.35-25.212 1.821-29.574 13.78l-8.845 24.323 76.642 27.879 8.845-24.323c4.353-11.956-1.825-25.19-13.781-29.543l-.015-.017zm-123.283 215.52l14.62 31.358 31.367-14.623c-8.065-17.335-28.66-24.829-45.978-16.737l-.01.003zm-306.067-956.176l-17.728 76.924-15.383-3.538 17.728-76.924 15.388 3.557-.005-.019zm-44.361-18.238l-1.766 7.701c-2.907 12.563.634 25.033 8.305 34.221l8.844-38.384c1.966-8.5 10.459-13.821 18.935-11.869l15.373 3.541c8.5 1.966 13.788 10.489 11.822 18.989l-8.842 38.352c10.907-4.892 19.549-14.56 22.446-27.12l1.766-7.701c3.942-17.044-6.635-34.016-23.633-37.939l-15.373-3.541c-17-3.933-33.947 6.7-37.884 23.722l.008.029zm2.382 130.034l15.378 3.56c17 3.933 33.942-6.719 37.879-23.741l1.761-7.72c2.909-12.553-.631-25.023-8.3-34.201l-8.853 38.386c-1.966 8.5-10.459 13.821-18.937 11.86l-15.373-3.541c-8.5-1.966-13.783-10.469-11.822-18.989l8.851-38.355c-10.907 4.892-19.554 14.541-22.448 27.111l-1.786 7.706c-3.922 17.039 6.635 34.016 23.633 37.939l.017-.015zm246.065 649.351l-17.748 76.888-15.383-3.538 17.746-76.897 15.383 3.538.003.01zm-44.376-18.254l-1.766 7.701c-2.907 12.563.634 25.033 8.305 34.221l8.844-38.384c1.966-8.5 10.459-13.821 18.935-11.869l15.373 3.541c8.5 1.966 13.788 10.489 11.822 18.989l-8.839 38.362c10.907-4.892 19.549-14.56 22.448-27.111l1.761-7.72c3.947-17.025-6.633-34.007-23.63-37.93l-15.373-3.541c-17-3.933-33.947 6.7-37.879 23.741zm2.392 130.031l15.378 3.56c17 3.933 33.947-6.7 37.879-23.741l1.761-7.72c2.919-12.556-.621-25.026-8.288-34.194l-8.868 38.37c-1.942 8.514-10.435 13.836-18.922 11.876l-15.373-3.541c-8.481-1.971-13.783-10.469-11.822-18.989l8.851-38.355c-10.907 4.892-19.554 14.541-22.448 27.111l-1.788 7.696c-3.922 17.039 6.635 34.016 23.633 37.939l.007-.012zm-1139.894 22.099c7.365 13.837 2.409 30.034-11.41 37.384-13.827 7.362-30.024 2.407-37.375-11.413-7.353-13.829-2.407-30.024 11.413-37.375 13.835-7.333 30.027-2.397 37.38 11.432l-.008-.029zm19.044-62.283l47.593 89.458c4.749 8.946 1.313 20.15-7.626 24.928l-130.115 69.2c-8.954 4.761-20.164 1.337-24.923-7.607l-47.588-89.439c-4.757-8.975-1.32-20.179 7.626-24.928l-4.325-8.139 32.53-17.316 4.325 8.139 16.258-8.646-.519-20.59 48.8-25.955 16.787 11.942 16.255-8.655c8.954-4.761 20.164-1.337 24.923 7.607zm-109.265 78.997c-3.463-6.506-12.194-9.177-18.69-5.716-6.496 3.461-9.177 12.194-5.716 18.69 3.461 6.496 12.188 9.157 18.685 5.697 6.496-3.461 9.157-12.188 5.716-18.69l.005.019zm106.483-25.34c-12.114-22.783-39.519-31.153-62.283-19.044-22.764 12.109-31.134 39.514-19.022 62.288 12.109 22.764 39.514 31.134 62.288 19.022 22.773-12.111 31.153-39.519 19.042-62.293l-.024.027zm-678.598-260.377l44.201 79.703c-2.976.487-5.906 1.376-8.679 2.928-13.069 7.252-17.823 23.624-10.625 36.604 7.183 12.964 23.603 17.59 36.658 10.363 13.075-7.233 17.823-23.624 10.625-36.604l-43.385-78.244 55.162-30.611 18.171 32.746c-2.956.482-5.891 1.393-8.664 2.944-13.075 7.233-17.823 23.624-10.643 36.578 7.207 12.978 23.608 17.61 36.668 10.36 13.075-7.233 17.823-23.624 10.631-36.585l-43.4-78.261-86.718 48.08zm531.134 25.502l-41.373 28.975c-4.57 3.193-5.372 9.931-1.814 15.014l51.664 73.746 16.024-38.714 41.873-1.856-51.664-73.746c-3.536-5.078-10.156-6.596-14.706-3.409l-.003-.01zm-146.594 134.254l-70.089 8.613-2.19-17.823 70.069-8.608 2.209 17.818zm2.187 17.813l-70.086 8.623 2.19 17.823 70.089-8.613-2.187-17.813-.005-.019zm27.974-56.86l12.905 104.785-46.138 58.862-70.072 8.599c-9.693 1.191-18.497-5.654-19.678-15.309l-17.183-139.703c-1.178-9.645 5.699-18.406 15.378-19.613l105.132-12.925c9.674-1.186 18.48 5.669 19.668 15.311l-.012-.007zm-5.788 90.02l-10.755-87.614-105.757 12.989 17.249 140.182 52.859-6.489-4.302-35.046c-1.198-9.681 5.707-18.491 15.454-19.675l35.241-4.344.01-.003zm-312.649 370.716l-26.077 12.728-9.541-19.559c-1.601-3.267-6.447-4.929-9.698-3.343l-52.166 25.449c-3.267 1.601-4.932 6.437-3.343 9.698l9.541 19.559-26.062 12.745c-3.92 1.91-5.261 5.79-3.353 9.7l15.905 32.597 130.389-63.62-15.886-32.603c-1.917-3.907-5.797-5.248-9.698-3.343l-.012-.007zm-39.118 19.082l-39.127 19.085-6.352-13.031 39.127-19.085 6.364 13.038-.012-.007zm22.108 61.873l-26.079 12.718-6.376-13.045-52.156 25.446 25.449 52.166c1.905 3.9 5.785 5.241 9.695 3.334l117.368-57.271c3.922-1.901 5.263-5.781 3.353-9.7l-25.456-52.154-52.163 25.459 6.379 13.055-.012-.007zm-364.47-373.271l-119.428 43.483c-9.432 3.44-14.301 13.857-10.844 23.275l43.473 119.431c3.43 9.435 13.843 14.285 23.265 10.847l119.428-43.483c9.435-3.43 14.285-13.843 10.844-23.275l-43.483-119.428c-3.44-9.432-13.852-14.282-23.284-10.842l.029-.008zm-102.839 65.387l43.867-15.965 15.985 43.862-43.862 15.985-15.985-43.862-.005-.019zm82.067 97.466c-12.104 4.405-25.514-1.857-29.916-13.951-4.407-12.113 1.835-25.519 13.946-29.936 12.119-4.388 25.524 1.854 29.938 13.955 4.388 12.119-1.854 25.524-13.955 29.938l-.012-.007zm6.724-58.338l10.067-53.363 42.025 34.395-52.104 18.961.012.007zm680.906-621.693l76.64 27.869-53.018 145.737c-10.521-3.827-15.962-15.394-12.23-25.92l-.046-.019c-3.932 10.435-15.537 15.814-26.039 11.983-10.382-3.771-15.763-15.074-12.349-25.474l-.123-.071c-4.077 10.205-15.486 15.387-25.848 11.611l53.004-145.712.01-.003zm77.275-41.324l-33.277-12.118c-11.966-4.35-25.209 1.83-29.572 13.789l-8.859 24.306 76.645 27.888 8.845-24.323c4.353-11.956-1.825-25.19-13.781-29.543l-.005-.019.005.019zm-123.289 215.501l14.623 31.367 31.387-14.628c-8.094-17.327-28.689-24.821-46.007-16.73l-.003-.01zm522.122 139.611c-.745-8.456 5.523-15.936 13.982-16.671 8.466-.748 15.936 5.523 16.693 13.986.719 8.474-5.532 15.938-13.996 16.696-8.464.716-15.931-5.545-16.676-14.001l-.003-.01zm88.869-43.842l10.766 122.682c.99 11.3-7.349 21.25-18.659 22.243l-163.589 14.33c-11.291.987-21.231-7.354-22.233-18.662l-10.737-122.689c-.997-11.288 7.354-21.231 18.652-22.231l163.584-14.349c11.291-.987 21.231 7.354 22.231 18.652l-.014.025zm-20.435 1.793l-163.584 14.349 6.673 76.097 36.911-49.016 66.137 61.686 14.572-20.339c7.327-10.248 22.067-11.539 31.055-2.735l16.682 16.34-8.444-96.372-.003-.01zm-1094.695 478.86l3.485 19.95-20.068 3.548-3.541-19.966-120.465 21.271 3.522 19.972-20.09 3.543-3.512-19.974c-11.092 1.959-18.505 12.468-16.564 23.493l21.129 119.779c1.951 11.022 12.515 18.368 23.61 16.419l-3.517-19.952 20.068-3.548 3.526 19.95 120.519-21.265-3.541-19.966 20.09-3.543 3.532 19.969c11.09-1.969 18.502-12.478 16.558-23.512l-21.13-119.747c-1.951-11.022-12.515-18.368-23.607-16.409l-.003-.01zm-116.46 146.159l-21.406 3.772-5.516-31.272 21.391-3.789 5.519 31.282.012.007zm-8.716-49.384l-21.406 3.772-5.516-31.272 21.406-3.772 5.516 31.272zm42.6 29.82l-10.453-59.262 51.323 21.496-40.867 37.775-.003-.01zm104.391-4.836l-21.396 3.769-5.526-31.269 21.406-3.772 5.523 31.26-.007.012zm-8.718-49.393l-21.387 3.767-5.516-31.272 21.396-3.769 5.516 31.272-.01.003zm1133.914-344.827c-2.801-1.711-5.775-3.121-8.873-4.206l-2.61-14.252-23.477-.477-3.027 14.2c-6.183 1.886-11.974 5.043-16.943 9.409l-13.538-4.923-12.023 20.308 10.637 9.781c-1.432 6.441-1.513 13.108-.238 19.582l-10.952 9.356 11.445 20.788 13.638-4.361c2.387 2.256 5.006 4.254 7.811 5.961 2.807 1.706 5.787 3.111 8.89 4.192l2.597 14.245 23.477.477 3.029-14.19c6.169-1.902 11.962-5.05 16.943-9.409l13.533 4.904 12.013-20.306-10.627-9.783c1.466-6.502 1.494-13.157.238-19.582l10.947-9.376-11.452-20.776-13.638 4.361c-2.397-2.259-5.023-4.262-7.836-5.976l.035.053zm-2.96 52.876c-7.097 11.491-22.283 15.293-33.936 8.478-11.658-6.794-15.343-21.617-8.252-33.096 7.107-11.494 22.302-15.298 33.946-8.48 11.658 6.794 15.34 21.607 8.252 33.096l-.01.003zm-70.494 34.329c-2.192-.444-4.426-.643-6.662-.595l-5.232-8.931-14.971 5.567 1.652 10.295c-3.515 2.889-6.372 6.497-8.377 10.581l-9.797.069-2.522 16.663 9.188 3.915c.708 4.683 2.329 9.18 4.771 13.238l-4.575 9.044 12.464 11.113 7.537-6.339c2.07.915 4.233 1.603 6.452 2.05 2.191.448 4.419.648 6.662.595l5.237 8.95 14.971-5.567-1.652-10.295c3.504-2.889 6.35-6.494 8.348-10.574l9.797-.069 2.522-16.663-9.191-3.924c-.709-4.728-2.364-9.203-4.756-13.221l4.575-9.044-12.462-11.103-7.537 6.339c-2.071-.913-4.234-1.6-6.452-2.05l.009-.044zm11.188 36.554c-1.452 9.336-9.885 15.459-18.85 13.69-8.965-1.769-15.045-10.773-13.592-20.109 1.45-9.345 9.893-15.471 18.848-13.699 8.965 1.769 15.045 10.773 13.592 20.109l.003.01zm-61.036-66.605c-1.061-.087-2.128-.051-3.181.107l-2.975-4.069-6.724 3.615 1.374 4.933c-1.492 1.637-2.621 3.57-3.315 5.672l-4.599.612-.223 8.281 4.55 1.369c.601 2.241 1.626 4.327 3.007 6.193l-1.614 4.678 6.532 4.668 3.171-3.542c1.03.325 2.093.533 3.169.621 1.062.098 2.136.049 3.164-.093l2.977 4.037 6.729-3.596-1.394-4.928c1.496-1.636 2.629-3.57 3.324-5.675l4.618-.617.201-8.286-4.55-1.369c-.604-2.234-1.63-4.331-3.023-6.179l1.624-4.681-6.518-4.693-3.191 3.548c-1.023-.317-2.077-.521-3.145-.606l.01-.003zm7.581 17.154c-.153 4.68-3.856 8.21-8.272 7.882-4.433-.313-7.878-4.359-7.725-9.039.153-4.68 3.856-8.21 8.282-7.884 4.404.321 7.862 4.374 7.706 9.044l.01-.003zm-938.25 56.638l-23.119 8.891c-3.182 1.233-4.769 4.805-3.552 7.993l17.74 46.239c1.233 3.182 4.805 4.769 7.993 3.552l23.124-8.871c3.182-1.233 4.769-4.805 3.552-7.993l-17.745-46.258c-1.233-3.182-4.805-4.769-7.993-3.552zm12.853 58.442l-6.421 2.467-.98-2.574 6.421-2.467.98 2.574zm6.526-9.878l-23.119 8.891-15.278-39.837 23.11-8.888 15.298 39.832-.01.003zm608.648-584.096l57.483 117.849c7.067 14.465 24.505 20.455 38.976 13.407l117.849-57.483 31.946 65.469 45.427-83.832c8.96-16.549 9.381-36.404 1.133-53.318l-57.114-117.089c-7.058-14.468-24.486-20.46-38.966-13.409l-183.318 89.429c-14.465 7.067-20.474 24.511-13.407 38.976l-.01.003zm-289.635 99.4c-11.913.637-20.989 12.358-20.264 26.183l2.629 50.084c.444 8.299 6.587 14.718 13.732 14.335 7.15-.364 12.553-7.404 12.121-15.696l-2.655-50.066-8.581.437 2.638 50.081c.139 2.758-1.675 5.108-4.055 5.229-2.38.12-4.425-2.023-4.564-4.782l-2.636-50.071c-.432-8.292 5.004-15.32 12.155-15.684 7.145-.383 13.297 6.033 13.732 14.335l2.668 50.694c.727 13.835-8.374 24.921-20.279 25.546-11.925.629-22.168-10.075-22.905-23.907l-1.327-25.033-8.619.447 1.33 25.043c1.008 19.362 15.348 34.341 32.033 33.471 16.683-.88 29.328-17.286 28.322-36.638l-2.658-50.076c-.705-13.831-10.926-24.531-22.832-23.906l.014-.025zm-601.052 64.576c53.332-7.507 102.868 29.804 110.368 83.148 7.509 53.341-29.801 102.878-83.164 110.383-53.332 7.507-102.861-29.816-110.373-83.167-7.507-53.332 29.816-102.861 83.169-110.363zm-2.741-23.971c-66.984 9.417-113.64 71.369-104.215 138.341 9.427 66.982 71.366 113.63 138.338 104.206 66.984-9.417 113.64-71.369 104.215-138.341-9.427-66.982-71.366-113.63-138.338-104.206zm76.296 100.504l-48.762 6.861-6.861-48.762-24.386 3.432 6.859 48.753-48.762 6.861 3.432 24.386 48.753-6.859 6.861 48.762 24.376-3.429-6.861-48.762 48.753-6.859-3.432-24.386.032.002zm124.004 204.718l32.041 18.476c-2.446 4.255-6.489 7.359-11.231 8.623-9.853 2.642-20.016-3.207-22.662-13.079-1.321-4.927-.508-9.928 1.86-14.032l-.007.012zm90.88 27.302l-4.567 7.913-126.582-73.064 4.57-7.904 10.098-1.227c6.924-.821 14.64-5.064 17.147-9.423l25.099-43.487c15.13-26.215 48.65-35.202 74.865-20.073 26.215 15.13 35.202 48.65 20.067 74.846l-25.11 43.522c-2.51 4.349-2.324 13.152.419 19.561l3.984 9.338.01-.003zm149.665 72.187c15.849-.284 28.47-14.384 28.17-31.492l-1.351-77.451c-.31-17.105-13.424-30.757-29.26-30.466-15.874.27-28.475 14.365-28.175 31.473l1.364 77.458c.31 17.105 13.402 30.752 29.26 30.466l-.007.012zm56.882-31.766c.615 34.232-24.583 62.401-56.323 62.969-31.742.558-57.921-26.717-58.516-60.954l-28.717.524c.818 46.034 32.564 83.61 73.391 90.287l.851 47.858 28.715-.492-.881-47.891c40.59-8.108 70.996-46.785 70.173-92.797l-28.703.499.01-.003zm66.093 37.81l32.199 79.659c2.537 6.257 9.702 9.306 15.928 6.809l79.199-32.024c6.226-2.498 9.248-9.686 6.721-15.946l-32.199-79.659-101.829 41.156-.019.005zm64.14 47.674l-27.764 11.223-2.482-6.168 27.742-11.228 2.511 6.161-.007.012zm7.985-15.788l-40.125 16.215-2.502-6.163 40.122-16.225 2.482 6.168.022.004zm-4.989-12.351l-40.122 16.225-2.482-6.168 40.103-16.219 2.482 6.168.019-.005zm47.307 6.016l-27.774 11.226-11.229-27.783 27.764-11.223 11.229 27.783.01-.003zm-16.222-40.113l-78.688 31.804-4.366-10.799 78.688-31.804 4.366 10.799zm-428.966-561.38l-26.099 12.723-9.544-19.569c-1.598-3.258-6.437-4.932-9.695-3.334l-52.166 25.449c-3.258 1.598-4.929 6.447-3.334 9.695l9.544 19.569-26.067 12.725c-3.92 1.91-5.258 5.8-3.353 9.7l15.905 32.597 130.392-63.611-15.886-32.603c-1.92-3.917-5.797-5.248-9.698-3.343zm-39.127 19.085l-39.127 19.085-6.352-13.031 39.127-19.085 6.364 13.038-.012-.007zm22.106 61.864l-26.077 12.728-6.374-13.036-52.156 25.446 25.449 52.166c1.908 3.91 5.785 5.241 9.698 3.343l117.373-57.252c3.917-1.92 5.248-5.797 3.353-9.7l-25.469-52.202-52.158 25.478 6.361 13.029zm710.516 631.795l76.645 27.888-53.013 145.715c-10.516-3.807-15.957-15.374-12.23-25.92l-.044-.009c-3.932 10.435-15.537 15.814-26.039 11.983-10.382-3.771-15.763-15.074-12.349-25.474l-.117-.051c-4.087 10.166-15.494 15.358-25.854 11.591l52.999-145.732.003.01zm77.284-41.326l-33.272-12.099c-11.966-4.35-25.212 1.821-29.574 13.78l-8.845 24.323 76.642 27.879 8.845-24.323c4.353-11.956-1.825-25.19-13.781-29.543l-.015-.017zm-123.283 215.52l14.62 31.358 31.367-14.623c-8.065-17.335-28.66-24.829-45.978-16.737l-.01.003zm-306.067-956.176l-17.728 76.924-15.383-3.538 17.728-76.924 15.388 3.557-.005-.019zm-44.361-18.238l-1.766 7.701c-2.907 12.563.634 25.033 8.305 34.221l8.844-38.384c1.966-8.5 10.459-13.821 18.935-11.869l15.373 3.541c8.5 1.966 13.788 10.489 11.822 18.989l-8.842 38.352c10.907-4.892 19.549-14.56 22.446-27.12l1.766-7.701c3.942-17.044-6.635-34.016-23.633-37.939l-15.373-3.541c-17-3.933-33.947 6.7-37.884 23.722l.008.029zm2.382 130.034l15.378 3.56c17 3.933 33.942-6.719 37.879-23.741l1.761-7.72c2.909-12.553-.631-25.023-8.3-34.201l-8.853 38.386c-1.966 8.5-10.459 13.821-18.937 11.86l-15.373-3.541c-8.5-1.966-13.783-10.469-11.822-18.989l8.851-38.355c-10.907 4.892-19.554 14.541-22.448 27.111l-1.786 7.706c-3.922 17.039 6.635 34.016 23.633 37.939l.017-.015zm246.065 649.351l-17.748 76.888-15.383-3.538 17.746-76.897 15.383 3.538.003.01zm-44.376-18.254l-1.766 7.701c-2.907 12.563.634 25.033 8.305 34.221l8.844-38.384c1.966-8.5 10.459-13.821 18.935-11.869l15.373 3.541c8.5 1.966 13.788 10.489 11.822 18.989l-8.839 38.362c10.907-4.892 19.549-14.56 22.448-27.111l1.761-7.72c3.947-17.025-6.633-34.007-23.63-37.93l-15.373-3.541c-17-3.933-33.947 6.7-37.879 23.741zm2.392 130.031l15.378 3.56c17 3.933 33.947-6.7 37.879-23.741l1.761-7.72c2.919-12.556-.621-25.026-8.288-34.194l-8.868 38.37c-1.942 8.514-10.435 13.836-18.922 11.876l-15.373-3.541c-8.481-1.971-13.783-10.469-11.822-18.989l8.851-38.355c-10.907 4.892-19.554 14.541-22.448 27.111l-1.788 7.696c-3.922 17.039 6.635 34.016 23.633 37.939l.007-.012zm-191.642 137.201l44.201 79.703c-2.976.487-5.906 1.376-8.679 2.928-13.069 7.252-17.823 23.624-10.625 36.604 7.183 12.964 23.603 17.59 36.658 10.363 13.075-7.233 17.823-23.624 10.625-36.604l-43.385-78.244 55.162-30.611 18.171 32.746c-2.956.482-5.891 1.393-8.664 2.944-13.075 7.233-17.823 23.624-10.643 36.578 7.207 12.978 23.608 17.61 36.668 10.36 13.075-7.233 17.823-23.624 10.631-36.585l-43.4-78.261-86.718 48.08zm531.134 25.502l-41.373 28.975c-4.57 3.193-5.372 9.931-1.814 15.014l51.664 73.746 16.024-38.714 41.873-1.856-51.664-73.746c-3.536-5.078-10.156-6.596-14.706-3.409l-.003-.01zm-146.594 134.254l-70.089 8.613-2.19-17.823 70.069-8.608 2.209 17.818zm2.187 17.813l-70.086 8.623 2.19 17.823 70.089-8.614-2.187-17.813-.005-.019zm27.974-56.86l12.905 104.785-46.138 58.862-70.072 8.599c-9.693 1.191-18.497-5.654-19.678-15.309l-17.183-139.703c-1.178-9.645 5.699-18.406 15.378-19.613l105.132-12.925c9.674-1.186 18.48 5.669 19.668 15.311l-.012-.007zm-5.788 90.02l-10.755-87.614-105.757 12.989 17.249 140.182 52.859-6.489-4.302-35.046c-1.198-9.681 5.707-18.491 15.454-19.675l35.241-4.344.01-.003zm-312.649 370.716l-26.077 12.728-9.541-19.559c-1.601-3.267-6.447-4.929-9.698-3.343l-52.166 25.449c-3.267 1.601-4.932 6.437-3.343 9.698l9.541 19.559-26.062 12.745c-3.92 1.91-5.261 5.79-3.353 9.7l15.905 32.597 130.389-63.62-15.886-32.602c-1.917-3.907-5.797-5.248-9.698-3.343l-.012-.007zm-39.118 19.082l-39.127 19.085-6.352-13.031 39.127-19.085 6.364 13.038-.012-.007zm22.108 61.873l-26.079 12.718-6.376-13.045-52.156 25.446 25.449 52.166c1.905 3.9 5.785 5.241 9.695 3.334l117.368-57.271c3.922-1.901 5.263-5.781 3.353-9.7l-25.456-52.154-52.163 25.459 6.379 13.055-.012-.007zm-364.47-373.271l-119.428 43.483c-9.432 3.44-14.301 13.857-10.844 23.275l43.473 119.431c3.43 9.435 13.843 14.285 23.265 10.847l119.428-43.483c9.435-3.43 14.285-13.843 10.844-23.275l-43.483-119.428c-3.44-9.432-13.852-14.282-23.284-10.842l.029-.008zm-102.839 65.387l43.867-15.965 15.985 43.862-43.862 15.985-15.985-43.862-.005-.019zm82.067 97.466c-12.104 4.405-25.514-1.857-29.916-13.951-4.407-12.113 1.835-25.519 13.946-29.936 12.119-4.388 25.524 1.854 29.938 13.955 4.388 12.119-1.854 25.524-13.955 29.938l-.012-.007zm6.724-58.338l10.067-53.363 42.025 34.395-52.104 18.961.012.007zm680.906-621.693l76.64 27.869-53.018 145.737c-10.521-3.827-15.962-15.394-12.23-25.92l-.046-.019c-3.932 10.435-15.537 15.814-26.039 11.983-10.382-3.771-15.763-15.074-12.349-25.474l-.123-.071c-4.077 10.205-15.486 15.387-25.848 11.611l53.004-145.712.01-.003zm77.275-41.324l-33.277-12.118c-11.966-4.35-25.209 1.83-29.572 13.789l-8.859 24.306 76.645 27.888 8.845-24.323c4.353-11.956-1.825-25.19-13.781-29.543l-.005-.019.005.019zm-123.289 215.501l14.623 31.367 31.387-14.628c-8.094-17.327-28.689-24.821-46.007-16.73l-.003-.01zm522.122 139.611c-.745-8.456 5.523-15.936 13.982-16.671 8.466-.748 15.936 5.523 16.693 13.986.719 8.474-5.532 15.938-13.996 16.696-8.464.716-15.931-5.545-16.676-14.001l-.003-.01zm88.869-43.842l10.766 122.682c.99 11.3-7.349 21.25-18.659 22.243l-163.589 14.33c-11.291.987-21.231-7.354-22.233-18.662l-10.737-122.689c-.997-11.288 7.354-21.231 18.652-22.231l163.584-14.349c11.291-.987 21.231 7.354 22.231 18.652l-.014.025zm-20.435 1.793l-163.584 14.349 6.673 76.097 36.911-49.016 66.137 61.686 14.572-20.339c7.327-10.248 22.067-11.539 31.055-2.735l16.682 16.34-8.444-96.372-.003-.01zm-1094.695 478.86l3.485 19.95-20.068 3.548-3.541-19.966-120.465 21.271 3.522 19.972-20.09 3.543-3.512-19.974c-11.092 1.959-18.505 12.468-16.564 23.493l21.129 119.779c1.951 11.022 12.515 18.368 23.61 16.419l-3.517-19.952 20.068-3.548 3.526 19.95 120.519-21.265-3.541-19.966 20.09-3.543 3.532 19.969c11.09-1.969 18.502-12.478 16.559-23.512l-21.13-119.747c-1.951-11.022-12.515-18.368-23.607-16.409l-.003-.01zm-116.46 146.159l-21.406 3.772-5.516-31.272 21.391-3.789 5.519 31.282.012.007zm-8.716-49.384l-21.406 3.772-5.516-31.272 21.406-3.772 5.516 31.272zm42.6 29.82l-10.453-59.262 51.323 21.496-40.867 37.775-.003-.01zm104.391-4.836l-21.396 3.769-5.526-31.269 21.406-3.772 5.523 31.26-.007.012zm-8.718-49.393l-21.387 3.767-5.516-31.272 21.396-3.769 5.516 31.272-.01.003zm1133.914-344.827c-2.801-1.711-5.775-3.121-8.873-4.206l-2.61-14.252-23.477-.477-3.027 14.2c-6.183 1.886-11.974 5.043-16.943 9.409l-13.538-4.923-12.023 20.308 10.637 9.781c-1.432 6.441-1.513 13.108-.238 19.582l-10.952 9.356 11.445 20.788 13.638-4.361c2.387 2.256 5.006 4.254 7.811 5.961 2.807 1.706 5.787 3.111 8.89 4.192l2.597 14.245 23.477.477 3.029-14.19c6.169-1.902 11.962-5.05 16.943-9.409l13.533 4.904 12.013-20.306-10.627-9.783c1.466-6.502 1.494-13.157.238-19.582l10.947-9.376-11.452-20.776-13.638 4.361c-2.397-2.259-5.023-4.262-7.836-5.976l.035.053zm-2.96 52.876c-7.097 11.491-22.283 15.293-33.936 8.478-11.658-6.794-15.343-21.617-8.252-33.096 7.107-11.494 22.302-15.298 33.946-8.48 11.658 6.794 15.34 21.607 8.252 33.096l-.01.003zm-70.494 34.329c-2.192-.444-4.426-.643-6.662-.595l-5.232-8.931-14.971 5.567 1.652 10.295c-3.515 2.889-6.372 6.497-8.377 10.581l-9.797.069-2.522 16.663 9.188 3.915c.708 4.683 2.329 9.18 4.771 13.238l-4.575 9.044 12.464 11.113 7.537-6.339c2.07.915 4.233 1.603 6.452 2.05 2.191.448 4.419.648 6.662.595l5.237 8.95 14.971-5.567-1.652-10.295c3.504-2.889 6.35-6.494 8.348-10.573l9.797-.069 2.522-16.663-9.191-3.924c-.709-4.728-2.364-9.203-4.756-13.221l4.575-9.044-12.462-11.103-7.537 6.338c-2.071-.913-4.234-1.6-6.452-2.05l.009-.044zm11.188 36.554c-1.452 9.336-9.885 15.459-18.85 13.69-8.965-1.769-15.045-10.773-13.592-20.109 1.45-9.345 9.893-15.471 18.848-13.699 8.965 1.769 15.045 10.773 13.592 20.109l.003.01zm-61.036-66.605c-1.061-.087-2.128-.051-3.181.107l-2.975-4.069-6.724 3.615 1.374 4.933c-1.492 1.637-2.621 3.57-3.315 5.672l-4.599.612-.223 8.281 4.55 1.369c.601 2.241 1.626 4.327 3.007 6.193l-1.614 4.678 6.532 4.668 3.171-3.542c1.03.325 2.093.533 3.169.621 1.062.098 2.136.049 3.164-.093l2.977 4.037 6.729-3.596-1.394-4.928c1.496-1.636 2.629-3.57 3.324-5.675l4.618-.617.201-8.286-4.55-1.369c-.604-2.234-1.63-4.331-3.023-6.179l1.624-4.681-6.518-4.693-3.191 3.548c-1.023-.317-2.077-.521-3.145-.606l.01-.003zm7.581 17.154c-.153 4.68-3.856 8.21-8.272 7.882-4.433-.313-7.878-4.359-7.725-9.039.153-4.68 3.856-8.21 8.282-7.884 4.404.321 7.862 4.374 7.706 9.044l.01-.003zm-938.25 56.638l-23.119 8.891c-3.182 1.233-4.769 4.805-3.552 7.993l17.74 46.239c1.233 3.182 4.805 4.769 7.993 3.552l23.124-8.871c3.182-1.233 4.769-4.805 3.552-7.993l-17.745-46.258c-1.233-3.182-4.805-4.769-7.993-3.552zm12.853 58.442l-6.421 2.467-.98-2.574 6.421-2.467.98 2.574zm6.526-9.878l-23.119 8.891-15.278-39.837 23.11-8.888 15.298 39.832-.01.003zm608.648-584.096l57.483 117.849c7.067 14.465 24.505 20.455 38.976 13.407l117.849-57.483 31.946 65.469 45.427-83.832c8.96-16.549 9.381-36.404 1.133-53.318l-57.114-117.089c-7.058-14.468-24.486-20.46-38.966-13.409l-183.318 89.429c-14.465 7.067-20.474 24.511-13.407 38.976l-.01.003zm-289.635 99.4c-11.913.637-20.989 12.358-20.264 26.183l2.629 50.084c.444 8.299 6.587 14.718 13.732 14.335 7.15-.364 12.553-7.404 12.121-15.696l-2.655-50.066-8.581.437 2.638 50.081c.139 2.758-1.675 5.108-4.055 5.229-2.38.12-4.425-2.023-4.564-4.782l-2.636-50.071c-.432-8.292 5.004-15.32 12.155-15.684 7.145-.383 13.297 6.033 13.732 14.335l2.668 50.694c.727 13.835-8.374 24.921-20.279 25.546-11.925.629-22.168-10.075-22.905-23.907l-1.327-25.033-8.619.447 1.33 25.043c1.008 19.362 15.348 34.341 32.033 33.471 16.683-.88 29.328-17.286 28.322-36.638l-2.658-50.076c-.705-13.831-10.926-24.531-22.832-23.906l.014-.025zm-601.052 64.576c53.332-7.507 102.868 29.804 110.368 83.148 7.509 53.341-29.801 102.878-83.164 110.383-53.332 7.507-102.861-29.816-110.373-83.167-7.507-53.332 29.816-102.861 83.169-110.363zm-2.741-23.971c-66.984 9.417-113.64 71.369-104.215 138.341 9.427 66.982 71.366 113.63 138.338 104.206 66.984-9.417 113.64-71.369 104.215-138.341-9.427-66.982-71.366-113.63-138.338-104.206zm76.296 100.504l-48.762 6.861-6.861-48.762-24.386 3.432 6.859 48.753-48.762 6.861 3.432 24.386 48.753-6.859 6.861 48.762 24.376-3.429-6.861-48.762 48.753-6.859-3.432-24.386.032.002zm124.004 204.718l32.041 18.476c-2.446 4.255-6.489 7.359-11.231 8.623-9.853 2.642-20.016-3.207-22.662-13.079-1.321-4.927-.508-9.928 1.86-14.032l-.007.012zm90.88 27.302l-4.567 7.914-126.582-73.064 4.57-7.904 10.098-1.227c6.924-.821 14.64-5.064 17.147-9.423l25.099-43.487c15.13-26.215 48.65-35.202 74.865-20.073 26.215 15.13 35.202 48.65 20.067 74.846l-25.11 43.522c-2.51 4.349-2.324 13.152.419 19.561l3.984 9.338.01-.003zm149.665 72.187c15.849-.284 28.47-14.384 28.17-31.492l-1.351-77.451c-.31-17.105-13.424-30.757-29.26-30.466-15.874.27-28.475 14.365-28.175 31.473l1.364 77.458c.31 17.105 13.402 30.752 29.26 30.466l-.007.012zm56.882-31.766c.615 34.232-24.583 62.402-56.323 62.969-31.742.558-57.921-26.717-58.516-60.954l-28.717.524c.818 46.034 32.564 83.61 73.391 90.287l.851 47.858 28.715-.492-.881-47.891c40.59-8.108 70.996-46.785 70.173-92.797l-28.703.499.01-.003zm66.093 37.81l32.199 79.659c2.537 6.257 9.702 9.306 15.928 6.809l79.199-32.024c6.226-2.498 9.248-9.686 6.721-15.946l-32.199-79.659-101.829 41.156-.019.005zm64.14 47.674l-27.764 11.223-2.482-6.168 27.742-11.228 2.511 6.161-.007.012zm7.985-15.788l-40.125 16.215-2.502-6.163 40.122-16.225 2.482 6.168.022.004zm-4.989-12.351l-40.122 16.225-2.482-6.168 40.103-16.219 2.482 6.168.019-.005zm47.307 6.016l-27.774 11.226-11.229-27.783 27.764-11.223 11.229 27.783.01-.003zm-16.222-40.113l-78.688 31.804-4.366-10.799 78.688-31.804 4.366 10.799zm-428.966-561.38l-26.099 12.723-9.544-19.569c-1.598-3.258-6.437-4.932-9.695-3.334l-52.166 25.449c-3.258 1.598-4.929 6.447-3.334 9.695l9.544 19.569-26.067 12.725c-3.92 1.91-5.258 5.8-3.353 9.7l15.905 32.597 130.392-63.611-15.886-32.603c-1.92-3.917-5.797-5.248-9.698-3.343zm-39.127 19.085l-39.127 19.085-6.352-13.031 39.127-19.085 6.364 13.038-.012-.007zm22.106 61.864l-26.077 12.728-6.374-13.036-52.156 25.446 25.449 52.166c1.908 3.91 5.785 5.241 9.698 3.343l117.373-57.252c3.917-1.92 5.248-5.797 3.353-9.7l-25.469-52.202-52.158 25.478 6.361 13.029zm710.516 631.795l76.645 27.888-53.013 145.715c-10.516-3.807-15.957-15.374-12.23-25.92l-.044-.009c-3.932 10.435-15.537 15.814-26.039 11.983-10.382-3.771-15.763-15.074-12.349-25.474l-.117-.051c-4.087 10.166-15.494 15.358-25.854 11.591l52.999-145.732.003.01zm77.284-41.326l-33.272-12.099c-11.966-4.35-25.212 1.821-29.574 13.78l-8.845 24.323 76.642 27.879 8.845-24.323c4.353-11.956-1.825-25.19-13.781-29.543l-.015-.017zm-123.283 215.52l14.62 31.358 31.367-14.623c-8.065-17.335-28.66-24.829-45.978-16.737l-.01.003zm-306.067-956.176l-17.728 76.924-15.383-3.538 17.728-76.924 15.388 3.557-.005-.019zm-44.361-18.238l-1.766 7.701c-2.907 12.563.634 25.033 8.305 34.221l8.844-38.384c1.966-8.5 10.459-13.821 18.935-11.869l15.373 3.541c8.5 1.966 13.788 10.489 11.822 18.989l-8.842 38.352c10.907-4.892 19.549-14.56 22.446-27.12l1.766-7.701c3.942-17.044-6.635-34.016-23.633-37.939l-15.373-3.541c-17-3.933-33.947 6.7-37.884 23.722l.008.029zm2.382 130.034l15.378 3.56c17 3.933 33.942-6.719 37.879-23.741l1.761-7.72c2.909-12.553-.631-25.023-8.3-34.201l-8.853 38.386c-1.966 8.5-10.459 13.821-18.937 11.86l-15.373-3.541c-8.5-1.966-13.783-10.469-11.822-18.989l8.851-38.355c-10.907 4.892-19.554 14.541-22.448 27.111l-1.786 7.706c-3.922 17.039 6.635 34.016 23.633 37.939l.017-.015zm246.065 649.351l-17.748 76.888-15.383-3.538 17.746-76.897 15.383 3.538.003.01zm-44.376-18.254l-1.766 7.701c-2.907 12.563.634 25.033 8.305 34.221l8.844-38.384c1.966-8.5 10.459-13.821 18.935-11.869l15.373 3.541c8.5 1.966 13.788 10.489 11.822 18.989l-8.839 38.362c10.907-4.892 19.549-14.56 22.448-27.111l1.761-7.72c3.947-17.025-6.633-34.007-23.63-37.93l-15.373-3.541c-17-3.933-33.947 6.7-37.879 23.741zm2.392 130.031l15.378 3.56c17 3.933 33.947-6.7 37.879-23.741l1.761-7.72c2.919-12.556-.621-25.026-8.288-34.194l-8.868 38.37c-1.942 8.514-10.435 13.836-18.922 11.876l-15.373-3.541c-8.481-1.971-13.783-10.469-11.822-18.989l8.851-38.355c-10.907 4.892-19.554 14.541-22.448 27.111l-1.788 7.697c-3.922 17.039 6.635 34.016 23.633 37.939l.007-.012zm1010.762-1001.111l44.201 79.703c-2.976.487-5.906 1.376-8.679 2.928-13.069 7.252-17.823 23.624-10.625 36.604 7.183 12.964 23.603 17.59 36.658 10.363 13.075-7.233 17.823-23.624 10.625-36.604l-43.385-78.244 55.162-30.611 18.171 32.746c-2.956.482-5.891 1.393-8.664 2.944-13.075 7.233-17.823 23.624-10.643 36.578 7.207 12.978 23.608 17.61 36.668 10.36 13.075-7.233 17.823-23.624 10.631-36.585l-43.4-78.261-86.718 48.08zm531.134 25.502l-41.373 28.975c-4.57 3.193-5.372 9.931-1.814 15.014l51.664 73.746 16.024-38.714 41.873-1.856-51.664-73.746c-3.536-5.078-10.156-6.596-14.706-3.409l-.003-.01zm-146.594 134.254l-70.089 8.613-2.19-17.823 70.069-8.608 2.209 17.818zm2.187 17.813l-70.086 8.623 2.19 17.823 70.089-8.614-2.187-17.813-.005-.019zm27.974-56.86l12.905 104.785-46.138 58.862-70.072 8.599c-9.693 1.191-18.497-5.654-19.678-15.309l-17.183-139.703c-1.178-9.645 5.699-18.406 15.378-19.613l105.132-12.925c9.674-1.186 18.48 5.669 19.668 15.311l-.012-.007zm-5.788 90.02l-10.755-87.614-105.757 12.989 17.249 140.182 52.859-6.489-4.302-35.046c-1.198-9.681 5.707-18.491 15.454-19.675l35.241-4.344.01-.003zm-312.649 370.716l-26.077 12.728-9.541-19.559c-1.601-3.267-6.447-4.929-9.698-3.343l-52.166 25.449c-3.267 1.601-4.932 6.437-3.343 9.698l9.541 19.559-26.062 12.745c-3.92 1.91-5.261 5.79-3.353 9.7l15.905 32.597 130.389-63.62-15.886-32.602c-1.917-3.907-5.797-5.248-9.698-3.343l-.012-.007zm-39.118 19.082l-39.127 19.085-6.352-13.031 39.127-19.085 6.364 13.038-.012-.007zm22.108 61.873l-26.079 12.718-6.376-13.045-52.156 25.446 25.449 52.166c1.905 3.9 5.785 5.241 9.695 3.334l117.368-57.271c3.922-1.901 5.263-5.781 3.353-9.7l-25.456-52.154-52.163 25.459 6.379 13.055-.012-.007zm-364.47-373.271l-119.428 43.483c-9.432 3.44-14.301 13.857-10.844 23.275l43.473 119.431c3.43 9.435 13.843 14.285 23.265 10.847l119.428-43.483c9.435-3.43 14.285-13.843 10.844-23.275l-43.483-119.428c-3.44-9.432-13.852-14.282-23.284-10.842l.029-.008zm-102.839 65.387l43.867-15.965 15.985 43.862-43.862 15.985-15.985-43.862-.005-.019zm82.067 97.466c-12.104 4.405-25.514-1.857-29.916-13.951-4.407-12.113 1.835-25.519 13.946-29.936 12.119-4.388 25.524 1.854 29.938 13.955 4.388 12.119-1.854 25.524-13.955 29.938l-.012-.007zm6.724-58.338l10.067-53.363 42.025 34.395-52.104 18.961.012.007zm680.906-621.693l76.64 27.869-53.018 145.737c-10.521-3.827-15.962-15.394-12.23-25.92l-.046-.019c-3.932 10.435-15.537 15.814-26.039 11.983-10.382-3.771-15.763-15.074-12.349-25.474l-.122-.071c-4.077 10.205-15.486 15.387-25.848 11.611l53.004-145.712.01-.003zm77.275-41.324l-33.277-12.118c-11.966-4.35-25.209 1.83-29.572 13.789l-8.859 24.306 76.645 27.888 8.845-24.323c4.353-11.956-1.825-25.19-13.781-29.543l-.005-.019.005.019zm-123.289 215.501l14.623 31.367 31.387-14.628c-8.094-17.327-28.689-24.821-46.007-16.73l-.003-.01zm522.122 139.611c-.745-8.456 5.523-15.936 13.982-16.671 8.466-.748 15.935 5.523 16.693 13.986.719 8.474-5.532 15.938-13.996 16.696-8.464.716-15.931-5.545-16.676-14.001l-.003-.01zm88.869-43.842l10.766 122.682c.99 11.3-7.349 21.25-18.659 22.243l-163.589 14.33c-11.291.987-21.231-7.354-22.233-18.662l-10.737-122.689c-.997-11.288 7.354-21.231 18.652-22.231l163.584-14.349c11.291-.987 21.231 7.354 22.231 18.652l-.014.025zm-20.435 1.793l-163.584 14.349 6.673 76.097 36.911-49.016 66.137 61.686 14.572-20.339c7.327-10.248 22.067-11.539 31.055-2.735l16.682 16.34-8.444-96.372-.003-.01zm-1094.695 478.86l3.485 19.95-20.068 3.548-3.541-19.966-120.465 21.271 3.522 19.972-20.09 3.543-3.512-19.974c-11.092 1.959-18.505 12.468-16.564 23.493l21.129 119.779c1.951 11.022 12.515 18.368 23.61 16.419l-3.517-19.952 20.068-3.548 3.526 19.95 120.519-21.265-3.541-19.966 20.09-3.543 3.532 19.969c11.09-1.969 18.502-12.478 16.559-23.512l-21.13-119.747c-1.951-11.022-12.515-18.368-23.607-16.409l-.003-.01zm-116.46 146.159l-21.406 3.772-5.516-31.272 21.391-3.789 5.519 31.282.012.007zm-8.716-49.384l-21.406 3.772-5.516-31.272 21.406-3.772 5.516 31.272zm42.6 29.82l-10.453-59.262 51.323 21.496-40.867 37.775-.003-.01zm104.391-4.836l-21.396 3.769-5.526-31.269 21.406-3.772 5.523 31.26-.007.012zm-8.718-49.393l-21.387 3.767-5.516-31.272 21.396-3.769 5.516 31.272-.01.003zm1133.914-344.827c-2.801-1.711-5.775-3.121-8.873-4.206l-2.61-14.252-23.477-.477-3.027 14.2c-6.183 1.886-11.974 5.043-16.944 9.409l-13.538-4.923-12.023 20.308 10.637 9.781c-1.432 6.441-1.513 13.108-.238 19.582l-10.952 9.356 11.445 20.788 13.638-4.361c2.387 2.256 5.006 4.254 7.811 5.961 2.807 1.706 5.787 3.111 8.89 4.192l2.597 14.245 23.477.477 3.029-14.19c6.169-1.902 11.962-5.05 16.944-9.409l13.533 4.904 12.013-20.306-10.627-9.783c1.467-6.502 1.494-13.157.238-19.582l10.947-9.376-11.452-20.776-13.638 4.361c-2.397-2.259-5.023-4.262-7.836-5.976l.035.053zm-2.96 52.876c-7.097 11.491-22.283 15.293-33.936 8.478-11.658-6.794-15.343-21.617-8.252-33.096 7.107-11.494 22.302-15.298 33.946-8.48 11.658 6.794 15.34 21.607 8.252 33.096l-.01.003zm-70.494 34.329c-2.192-.444-4.426-.643-6.662-.595l-5.232-8.931-14.971 5.567 1.652 10.295c-3.515 2.889-6.372 6.497-8.377 10.581l-9.797.069-2.522 16.663 9.188 3.915c.708 4.683 2.329 9.18 4.771 13.238l-4.575 9.044 12.464 11.113 7.537-6.339c2.07.915 4.233 1.603 6.452 2.05 2.191.448 4.419.648 6.662.595l5.237 8.95 14.971-5.567-1.652-10.295c3.504-2.889 6.35-6.494 8.348-10.574l9.797-.069 2.522-16.663-9.191-3.924c-.709-4.728-2.364-9.203-4.756-13.221l4.575-9.044-12.462-11.103-7.537 6.338c-2.071-.913-4.234-1.6-6.452-2.05l.009-.044zm11.188 36.554c-1.452 9.336-9.885 15.459-18.85 13.69-8.965-1.769-15.045-10.773-13.592-20.109 1.45-9.345 9.893-15.471 18.848-13.699 8.965 1.769 15.045 10.773 13.592 20.109l.003.01zm-61.036-66.605c-1.061-.087-2.128-.051-3.181.107l-2.975-4.069-6.724 3.615 1.374 4.933c-1.492 1.637-2.621 3.57-3.315 5.672l-4.599.612-.223 8.281 4.55 1.369c.601 2.241 1.626 4.327 3.007 6.193l-1.614 4.678 6.532 4.668 3.171-3.542c1.03.325 2.093.533 3.169.621 1.062.098 2.136.049 3.164-.093l2.977 4.037 6.729-3.596-1.394-4.928c1.496-1.636 2.629-3.57 3.324-5.675l4.618-.617.201-8.286-4.55-1.369c-.604-2.234-1.63-4.331-3.023-6.179l1.624-4.681-6.518-4.693-3.191 3.548c-1.023-.317-2.077-.521-3.145-.606l.01-.003zm7.581 17.154c-.153 4.68-3.856 8.21-8.272 7.882-4.433-.313-7.878-4.359-7.725-9.039.153-4.68 3.856-8.21 8.282-7.884 4.404.321 7.862 4.374 7.706 9.044l.01-.003zm-310.223-478.893l57.483 117.849c7.067 14.465 24.505 20.455 38.976 13.407l117.849-57.483 31.946 65.469 45.427-83.832c8.96-16.549 9.381-36.404 1.133-53.318l-57.114-117.089c-7.058-14.468-24.486-20.46-38.966-13.409l-183.318 89.429c-14.465 7.067-20.474 24.51-13.407 38.976l-.01.003zm-289.635 99.4c-11.913.637-20.989 12.358-20.264 26.183l2.629 50.084c.444 8.299 6.587 14.718 13.732 14.335 7.15-.364 12.553-7.404 12.121-15.696l-2.655-50.066-8.581.437 2.638 50.081c.139 2.758-1.675 5.108-4.055 5.229-2.38.12-4.425-2.023-4.564-4.782l-2.636-50.071c-.432-8.292 5.004-15.32 12.155-15.684 7.145-.383 13.297 6.033 13.732 14.335l2.668 50.694c.727 13.835-8.374 24.921-20.279 25.546-11.925.629-22.168-10.075-22.905-23.907l-1.327-25.033-8.619.447 1.33 25.043c1.008 19.362 15.348 34.341 32.033 33.471 16.683-.88 29.328-17.286 28.322-36.638l-2.658-50.076c-.705-13.831-10.926-24.531-22.832-23.906l.014-.024zm-601.052 64.576c53.332-7.507 102.868 29.804 110.368 83.148 7.509 53.341-29.801 102.878-83.164 110.383-53.332 7.507-102.861-29.816-110.373-83.167-7.507-53.332 29.816-102.861 83.169-110.363zm-2.741-23.971c-66.984 9.417-113.64 71.369-104.215 138.341 9.427 66.982 71.366 113.63 138.338 104.206 66.984-9.417 113.64-71.369 104.215-138.341-9.427-66.982-71.366-113.63-138.338-104.206zm76.296 100.504l-48.762 6.861-6.861-48.762-24.386 3.432 6.859 48.753-48.762 6.861 3.432 24.386 48.753-6.859 6.861 48.762 24.376-3.429-6.861-48.762 48.753-6.859-3.432-24.386.032.002zm124.004 204.718l32.041 18.476c-2.446 4.255-6.489 7.359-11.231 8.623-9.853 2.642-20.016-3.207-22.662-13.079-1.321-4.927-.508-9.928 1.86-14.032l-.007.012zm90.88 27.302l-4.567 7.914-126.582-73.064 4.57-7.904 10.098-1.227c6.924-.821 14.64-5.064 17.147-9.423l25.099-43.487c15.13-26.215 48.65-35.202 74.865-20.073 26.215 15.13 35.202 48.65 20.067 74.846l-25.11 43.522c-2.51 4.349-2.324 13.152.419 19.561l3.984 9.338.01-.003zm149.665 72.187c15.849-.284 28.47-14.384 28.17-31.492l-1.351-77.451c-.31-17.105-13.424-30.757-29.26-30.466-15.874.27-28.475 14.365-28.175 31.473l1.364 77.458c.31 17.105 13.402 30.752 29.26 30.466l-.007.012zm56.882-31.766c.615 34.232-24.583 62.402-56.323 62.969-31.742.558-57.921-26.717-58.516-60.954l-28.717.524c.818 46.034 32.564 83.61 73.391 90.287l.851 47.858 28.715-.492-.881-47.891c40.59-8.108 70.996-46.785 70.173-92.797l-28.703.499.01-.003zm66.093 37.81l32.199 79.659c2.537 6.257 9.702 9.306 15.928 6.809l79.199-32.024c6.226-2.498 9.248-9.686 6.721-15.946l-32.199-79.659-101.829 41.156-.019.005zm64.14 47.674l-27.764 11.223-2.482-6.168 27.742-11.228 2.511 6.161-.007.012zm7.985-15.788l-40.125 16.215-2.502-6.163 40.122-16.225 2.482 6.168.022.004zm-4.989-12.351l-40.122 16.225-2.482-6.168 40.103-16.219 2.482 6.168.019-.005zm47.307 6.016l-27.774 11.226-11.229-27.783 27.764-11.223 11.229 27.783.01-.003zm-16.222-40.113l-78.688 31.804-4.366-10.799 78.688-31.804 4.366 10.799zm-428.966-561.38l-26.099 12.723-9.544-19.569c-1.598-3.258-6.437-4.932-9.695-3.334l-52.166 25.449c-3.258 1.598-4.929 6.447-3.334 9.695l9.544 19.569-26.067 12.725c-3.92 1.91-5.258 5.8-3.353 9.7l15.905 32.597 130.392-63.611-15.886-32.603c-1.92-3.917-5.797-5.248-9.698-3.343zm-39.127 19.085l-39.127 19.085-6.352-13.031 39.127-19.085 6.364 13.038-.012-.007zm22.106 61.864l-26.077 12.728-6.374-13.036-52.156 25.446 25.449 52.166c1.908 3.91 5.785 5.241 9.698 3.343l117.373-57.252c3.917-1.92 5.248-5.797 3.353-9.7l-25.469-52.202-52.158 25.478 6.361 13.029zm710.516 631.795l76.645 27.888-53.013 145.715c-10.516-3.807-15.957-15.374-12.23-25.92l-.044-.009c-3.932 10.435-15.537 15.814-26.039 11.983-10.382-3.771-15.763-15.074-12.349-25.474l-.117-.051c-4.087 10.166-15.494 15.358-25.854 11.591l52.999-145.732.003.01zm77.284-41.326l-33.272-12.099c-11.966-4.35-25.212 1.821-29.574 13.78l-8.845 24.323 76.642 27.879 8.845-24.323c4.353-11.956-1.825-25.19-13.781-29.543l-.015-.017zm-123.283 215.52l14.62 31.358 31.367-14.623c-8.065-17.335-28.66-24.829-45.978-16.737l-.01.003zm-306.067-956.176l-17.728 76.924-15.383-3.538 17.728-76.924 15.388 3.557-.005-.019zm-44.361-18.238l-1.766 7.701c-2.907 12.563.634 25.033 8.305 34.221l8.844-38.384c1.966-8.5 10.459-13.821 18.935-11.869l15.373 3.541c8.5 1.966 13.788 10.489 11.822 18.989l-8.842 38.352c10.907-4.892 19.549-14.56 22.446-27.12l1.766-7.701c3.942-17.044-6.635-34.016-23.633-37.939l-15.373-3.541c-17-3.933-33.947 6.7-37.884 23.722l.008.029zm2.382 130.034l15.378 3.56c17 3.933 33.942-6.719 37.879-23.741l1.761-7.72c2.909-12.553-.631-25.023-8.3-34.201l-8.853 38.386c-1.966 8.5-10.459 13.821-18.937 11.86l-15.373-3.541c-8.5-1.966-13.783-10.469-11.822-18.989l8.851-38.355c-10.907 4.892-19.554 14.541-22.448 27.111l-1.786 7.706c-3.922 17.039 6.635 34.016 23.633 37.939l.017-.015zm246.065 649.351l-17.748 76.888-15.383-3.538 17.746-76.897 15.383 3.538.003.01zm-44.376-18.254l-1.766 7.701c-2.907 12.563.634 25.033 8.305 34.221l8.844-38.384c1.966-8.5 10.459-13.821 18.935-11.869l15.373 3.541c8.5 1.966 13.788 10.489 11.822 18.989l-8.839 38.362c10.907-4.892 19.549-14.56 22.448-27.111l1.761-7.72c3.947-17.025-6.633-34.007-23.63-37.93l-15.373-3.541c-17-3.933-33.947 6.7-37.879 23.741zm2.392 130.031l15.378 3.56c17 3.933 33.947-6.7 37.879-23.741l1.761-7.72c2.919-12.556-.621-25.026-8.288-34.194l-8.868 38.37c-1.942 8.514-10.435 13.836-18.922 11.876l-15.373-3.541c-8.481-1.971-13.783-10.469-11.822-18.989l8.851-38.355c-10.907 4.892-19.554 14.541-22.448 27.111l-1.788 7.697c-3.922 17.039 6.635 34.016 23.633 37.939l.007-.012zm-662.329-966.841l-33.488 8.979c-4.621 1.239-7.374 5.966-6.145 10.552l17.819 66.461c1.23 4.586 5.978 7.302 10.599 6.063l33.488-8.979c4.621-1.239 7.374-5.966 6.145-10.552l-17.819-66.461c-1.23-4.586-5.978-7.302-10.599-6.063zm8.602 82.289l-8.372 2.245-1.114-4.154 8.372-2.245 1.114 4.154zm10.331-11.675l-33.488 8.979-15.592-58.153 33.488-8.979 15.592 58.153zm160.213 732.454l-33.488 8.979c-4.621 1.239-7.374 5.966-6.145 10.552l17.819 66.461c1.23 4.586 5.978 7.302 10.599 6.063l33.488-8.979c4.621-1.239 7.374-5.966 6.145-10.552l-17.819-66.461c-1.23-4.586-5.978-7.302-10.599-6.063zm8.602 82.289l-8.372 2.245-1.114-4.154 8.372-2.245 1.114 4.154zm10.331-11.675l-33.488 8.979-15.592-58.153 33.488-8.979 15.592 58.153z" fill="#E9EFF3"/></svg>